<svg width="294" height="36" viewBox="0 0 294 36" fill="none" xmlns="http://www.w3.org/2000/svg">
<g clip-path="url(#clip0_2_14)">
<path d="M53.7985 11.0519H43.3542C43.2812 11.0519 43.2092 11.0519 43.1371 11.0564C43.0457 11.0564 42.9522 11.0519 42.8597 11.0519H39.1476C38.0618 11.0507 36.9878 11.2268 35.995 11.5687C35.0022 11.9106 34.1126 12.4107 33.3838 13.0367H22.0937C21.365 12.4108 20.4756 11.9108 19.4829 11.5689C18.4903 11.227 17.4164 11.0509 16.3308 11.0519H12.6177C12.5253 11.0519 12.4318 11.0519 12.3403 11.0564C12.2683 11.0564 12.1963 11.0519 12.1233 11.0519H1.67892C1.23365 11.0519 0.806604 11.1894 0.491744 11.4343C0.176885 11.6792 0 12.0114 0 12.3577V13.8202C0.000224752 14.904 0.481642 15.9546 1.36286 16.7942C2.24408 17.6338 3.47103 18.2109 4.83627 18.4281V19.9913C4.83627 21.5968 5.65595 23.1366 7.11511 24.2722C8.57428 25.4078 10.5535 26.0463 12.6177 26.0473H13.3088C13.4371 28.589 14.8257 30.9934 17.1836 32.7561C19.5414 34.5189 22.6852 35.5031 25.9557 35.5023H29.5218C32.7923 35.5031 35.9361 34.5189 38.2939 32.7561C40.6517 30.9934 42.0404 28.589 42.1687 26.0473H42.8597C44.924 26.0463 46.9032 25.4078 48.3624 24.2722C49.8215 23.1366 50.6412 21.5968 50.6412 19.9913V18.4281C52.0064 18.2109 53.2334 17.6338 54.1146 16.7942C54.9958 15.9546 55.4772 14.904 55.4775 13.8202V12.3577C55.4775 12.0114 55.3006 11.6792 54.9857 11.4343C54.6709 11.1894 54.2438 11.0519 53.7985 11.0519ZM31.3341 22.1495C31.3342 22.6837 31.1375 23.2067 30.7674 23.6567C30.3972 24.1067 29.869 24.4647 29.2454 24.6885L30.937 28.3297C30.9819 28.4259 30.9963 28.5292 30.979 28.6307C30.9617 28.7322 30.9131 28.829 30.8375 28.9128C30.7618 28.9966 30.6613 29.0649 30.5444 29.1121C30.4275 29.1592 30.2978 29.1838 30.1661 29.1836H25.3308C25.197 29.1835 25.0652 29.1584 24.9465 29.1104C24.8278 29.0625 24.7257 28.993 24.6488 28.9078C24.5719 28.8227 24.5224 28.7244 24.5046 28.6213C24.4868 28.5182 24.5011 28.4132 24.5463 28.3153L26.2321 24.6885C25.6084 24.4647 25.0803 24.1067 24.7101 23.6567C24.3399 23.2067 24.1433 22.6837 24.1434 22.1495C24.1426 21.7819 24.2351 21.4178 24.4154 21.078C24.5957 20.7382 24.8605 20.4294 25.1944 20.1692C25.5283 19.9091 25.9249 19.7027 26.3615 19.5619C26.7981 19.4211 27.2661 19.3486 27.7387 19.3486C28.2114 19.3486 28.6794 19.4211 29.116 19.5619C29.5525 19.7027 29.9492 19.9091 30.2831 20.1692C30.617 20.4294 30.8817 20.7382 31.0621 21.078C31.2424 21.4178 31.3348 21.7819 31.3341 22.1495Z" fill="white"/>
<path d="M20.552 10.2161H34.9255C36.5686 10.2002 38.1374 9.68132 39.292 8.77199C40.4466 7.86266 41.0941 6.6361 41.0941 5.35807C41.0941 4.08003 40.4466 2.85347 39.292 1.94414C38.1374 1.03481 36.5686 0.515953 34.9255 0.5H20.552C18.9089 0.515953 17.3401 1.03481 16.1855 1.94414C15.0308 2.85347 14.3834 4.08003 14.3834 5.35807C14.3834 6.6361 15.0308 7.86266 16.1855 8.77199C17.3401 9.68132 18.9089 10.2002 20.552 10.2161ZM20.552 2.58933H34.9255C35.8594 2.60134 36.7499 2.89833 37.4049 3.41626C38.0599 3.93419 38.4269 4.63158 38.4269 5.35807C38.4269 6.08455 38.0599 6.78194 37.4049 7.29987C36.7499 7.8178 35.8594 8.11479 34.9255 8.1268H20.552C19.618 8.11479 18.7276 7.8178 18.0726 7.29987C17.4176 6.78194 17.0505 6.08455 17.0505 5.35807C17.0505 4.63158 17.4176 3.93419 18.0726 3.41626C18.7276 2.89833 19.618 2.60134 20.552 2.58933Z" fill="white"/>
</g>
<g clip-path="url(#clip1_2_14)">
<path d="M95.1056 9.83662C93.8822 9.29664 92.5504 8.9211 91.1663 8.72582C89.5572 8.4877 87.9222 8.37176 86.2843 8.37962C84.3303 8.37142 82.3791 8.4953 80.4527 8.74989C78.623 8.99673 76.8997 9.28801 75.2827 9.62371V11.612C76.0634 11.3769 76.8346 11.1566 77.6035 10.9474C78.3723 10.7382 79.1721 10.5568 80.0075 10.392C80.8986 10.2269 81.8015 10.1032 82.7115 10.0217C83.7768 9.92911 84.8482 9.88522 85.9201 9.89031C86.7913 9.89031 87.6601 9.91992 88.5265 9.97917C89.359 10.034 90.1859 10.1311 91.002 10.2698C91.7504 10.3966 92.4825 10.5756 93.1895 10.8049C93.8274 11.0094 94.4213 11.2884 94.9509 11.6324C95.4401 11.9518 95.8382 12.3472 96.1196 12.7932C96.4086 13.2717 96.552 13.7956 96.5385 14.3242V15.7479C94.2932 15.8479 92.1573 15.9713 90.1309 16.1182C88.1044 16.265 86.2185 16.4545 84.4729 16.6865C82.8718 16.8926 81.2884 17.1746 79.7314 17.5307C78.4672 17.8139 77.254 18.2201 76.1206 18.7396C75.2018 19.1552 74.4131 19.7243 73.8117 20.4058C73.2627 21.0601 72.9798 21.8278 73 22.6089C72.9782 23.3842 73.2187 24.1503 73.6974 24.8305C74.1817 25.4812 74.8642 26.0292 75.685 26.4263C76.6535 26.8893 77.7183 27.2176 78.8317 27.3964C80.2094 27.6239 81.6151 27.7325 83.0234 27.7204C84.2481 27.7166 85.4715 27.6548 86.6866 27.5353C87.9092 27.4208 89.1227 27.2533 90.3213 27.0336C91.4603 26.826 92.5832 26.5682 93.6846 26.2616C94.667 25.9922 95.6218 25.6654 96.5409 25.2841V27.3464H98.7022V14.7186C98.7022 13.5707 98.3848 12.5963 97.7501 11.7953C97.0911 10.9819 96.1823 10.3088 95.1056 9.83662ZM96.5338 23.5179C96.0771 23.783 95.5894 24.0142 95.0771 24.2084C94.4588 24.4499 93.823 24.6631 93.1728 24.8471C92.4762 25.0446 91.732 25.2298 90.9401 25.4025C90.1483 25.5753 89.3477 25.7179 88.5384 25.8302C87.7244 25.9536 86.9072 26.0487 86.0868 26.1153C85.2961 26.1808 84.5016 26.2141 83.7065 26.2153C82.5244 26.2243 81.3439 26.1449 80.1813 25.9783C79.2496 25.8519 78.3487 25.614 77.5106 25.2729C76.8303 25.0002 76.2478 24.6 75.8159 24.1085C75.422 23.6368 75.2189 23.0842 75.2327 22.5219C75.2327 21.79 75.6294 21.1346 76.4229 20.5558C77.2163 19.9769 78.4691 19.4709 80.1813 19.0377C82.3395 18.5281 84.5491 18.1609 86.7866 17.9399C89.4842 17.6424 92.7325 17.4116 96.5314 17.2475L96.5338 23.5179Z" fill="white"/>
<path d="M124.243 10.0199C123.372 9.42768 122.35 8.98597 121.243 8.72394C119.873 8.40221 118.447 8.24917 117.016 8.27037C115.643 8.26522 114.274 8.38325 112.936 8.62212C111.695 8.84477 110.479 9.14632 109.302 9.52371C108.212 9.87349 107.152 10.2767 106.129 10.7308C105.148 11.1702 104.251 11.5879 103.437 11.9841V8.72394H101.256V27.3556H103.437V13.9447C104.22 13.4405 105.047 12.9785 105.912 12.5617C106.937 12.0629 108.008 11.6254 109.118 11.2528C110.318 10.8504 111.557 10.5241 112.824 10.2772C114.132 10.0194 115.476 9.88944 116.826 9.89027C117.891 9.88249 118.954 9.96003 119.999 10.1217C120.866 10.2498 121.685 10.5276 122.395 10.9344C123.073 11.3463 123.596 11.8915 123.912 12.5136C124.267 13.1788 124.444 14.0267 124.442 15.0573V27.3556H126.623V14.6908C126.639 13.7861 126.438 12.887 126.03 12.0397C125.649 11.2655 125.036 10.5732 124.243 10.0199Z" fill="white"/>
<path d="M143.808 18.8025H153.568L153.596 25.321C153.144 25.4303 152.589 25.5358 151.93 25.6395C151.271 25.7431 150.556 25.8394 149.766 25.9246C148.976 26.0097 148.136 26.0801 147.246 26.1356C146.355 26.1912 145.456 26.2152 144.549 26.2152C142.504 26.2439 140.464 26.0386 138.496 25.6061C136.934 25.263 135.473 24.6871 134.194 23.9103C133.088 23.2234 132.212 22.3387 131.64 21.3314C131.067 20.2979 130.778 19.1822 130.793 18.0564C130.769 16.8833 131.064 15.7195 131.657 14.6408C132.23 13.6277 133.118 12.741 134.24 12.06C135.531 11.3017 137.001 10.7487 138.567 10.4327C140.554 10.0282 142.602 9.83637 144.656 9.86249C145.728 9.85716 146.798 9.91908 147.857 10.0476C148.808 10.166 149.746 10.3399 150.664 10.5678C151.494 10.7745 152.304 11.0282 153.087 11.3269C153.813 11.6072 154.521 11.9162 155.208 12.2525V10.1883C154.37 9.91803 153.539 9.67119 152.715 9.44779C151.88 9.22386 151.029 9.03354 150.168 8.87759C149.266 8.71377 148.352 8.59015 147.431 8.50732C146.404 8.41724 145.371 8.37397 144.337 8.37773C142.924 8.37482 141.513 8.46337 140.119 8.64247C138.83 8.80612 137.565 9.0697 136.344 9.42928C135.212 9.76215 134.139 10.2064 133.152 10.7511C132.211 11.2724 131.383 11.9067 130.698 12.6302C130.006 13.3671 129.473 14.1869 129.12 15.0573C128.736 16.0254 128.548 17.0341 128.563 18.0472C128.563 19.6838 128.963 21.1074 129.765 22.3182C130.549 23.5143 131.687 24.5485 133.085 25.3359C134.597 26.1723 136.297 26.7797 138.098 27.1261C140.149 27.5303 142.259 27.7282 144.375 27.7148C145.477 27.7148 146.534 27.6833 147.538 27.6204C148.543 27.5574 149.514 27.4649 150.449 27.3427C151.385 27.2205 152.292 27.0687 153.17 26.8891C154.048 26.7095 154.915 26.5003 155.788 26.2652L155.722 17.1308H143.82L143.808 18.8025Z" fill="white"/>
<path d="M182.138 11.1381C180.902 10.264 179.441 9.60343 177.853 9.19973C175.98 8.72522 174.018 8.49562 172.048 8.52029C170.098 8.50252 168.159 8.74099 166.311 9.22564C164.674 9.65538 163.159 10.3281 161.851 11.2066C160.613 12.0499 159.624 13.0904 158.949 14.2575C158.245 15.4855 157.891 16.8175 157.911 18.162C157.884 19.5286 158.255 20.8823 158.995 22.122C159.712 23.2926 160.765 24.3198 162.072 25.1248C163.512 25.9959 165.154 26.6427 166.909 27.0298C168.978 27.4915 171.123 27.7154 173.276 27.6945C174.285 27.6945 175.212 27.6692 176.056 27.6186C176.899 27.5704 177.723 27.4927 178.539 27.389C179.355 27.2853 180.179 27.1502 181.017 26.9817C181.855 26.8132 182.759 26.6114 183.735 26.3782V24.4121C183.165 24.6772 182.563 24.898 181.938 25.0711C181.144 25.2972 180.335 25.487 179.512 25.6395C178.598 25.8125 177.673 25.946 176.739 26.0394C175.793 26.1383 174.838 26.1884 173.883 26.1893C171.929 26.2131 169.978 26.0376 168.082 25.6672C166.579 25.3751 165.159 24.8671 163.895 24.1695C162.796 23.5483 161.9 22.7355 161.277 21.7961C160.644 20.8192 160.264 19.7548 160.158 18.6637H185.694V18.2434C185.721 16.8621 185.414 15.4892 184.787 14.1965C184.214 13.034 183.308 11.9882 182.138 11.1381ZM160.135 17.1863C160.284 16.2343 160.645 15.3097 161.201 14.4538C161.766 13.5826 162.548 12.8078 163.503 12.1748C164.557 11.4844 165.768 10.9532 167.073 10.6086C168.659 10.1979 170.322 10.0007 171.993 10.0254C173.982 10.0254 175.688 10.2198 177.113 10.6086C178.413 10.9417 179.611 11.4771 180.636 12.1822C181.538 12.8156 182.25 13.5955 182.721 14.4667C183.188 15.3313 183.466 16.2505 183.542 17.1863H160.135Z" fill="white"/>
<path d="M194.161 25.4358C193.109 25.2507 192.303 24.9638 191.745 24.575C191.186 24.1844 190.802 23.6657 190.647 23.0939C190.46 22.3801 190.372 21.6526 190.386 20.9242V8.72394H188.205V21.2389C188.183 22.1638 188.33 23.0864 188.643 23.9788C188.905 24.7162 189.438 25.3782 190.176 25.8839C191.042 26.4334 192.063 26.8143 193.156 26.9947C194.719 27.2593 196.317 27.3799 197.917 27.3538H209.178V25.7117H198.352C196.946 25.7363 195.541 25.6438 194.161 25.4358Z" fill="white"/>
<path d="M235.235 10.7104C233.792 9.88924 232.158 9.29324 230.424 8.95535C228.473 8.5652 226.464 8.37354 224.45 8.38514C223.078 8.38125 221.707 8.46546 220.353 8.63692C219.105 8.79261 217.882 9.05141 216.704 9.40892C215.605 9.74083 214.565 10.1807 213.61 10.7178C212.697 11.2344 211.899 11.8642 211.249 12.5821C210.582 13.3283 210.071 14.1518 209.735 15.0221C209.36 16.0055 209.178 17.0272 209.194 18.0527C209.194 19.7263 209.583 21.1704 210.361 22.3848C211.111 23.5785 212.22 24.6142 213.593 25.4043C215.047 26.227 216.692 26.8235 218.437 27.1612C220.403 27.5476 222.425 27.7356 224.452 27.7204C226.467 27.7325 228.475 27.5415 230.427 27.152C232.159 26.8168 233.792 26.2233 235.235 25.4043C236.595 24.6129 237.694 23.5811 238.441 22.3941C239.218 21.1796 239.607 19.7356 239.607 18.062C239.607 16.3884 239.218 14.9444 238.441 13.7299C237.694 12.5403 236.595 11.5055 235.235 10.7104ZM236.546 21.5517C236.011 22.5468 235.17 23.4246 234.097 24.1084C232.902 24.8434 231.524 25.3785 230.05 25.6802C226.362 26.3936 222.504 26.3936 218.816 25.6802C217.337 25.3774 215.953 24.8425 214.75 24.1084C213.667 23.4272 212.816 22.5492 212.272 21.5517C211.155 19.3076 211.155 16.8201 212.272 14.576C212.814 13.5755 213.665 12.6947 214.75 12.0119C215.956 11.2761 217.341 10.7388 218.823 10.4327C222.511 9.71437 226.37 9.71437 230.058 10.4327C231.531 10.735 232.909 11.2707 234.104 12.0063C235.177 12.6901 236.018 13.5679 236.553 14.563C237.661 16.8155 237.661 19.3067 236.553 21.5591L236.546 21.5517Z" fill="white"/>
<path d="M260.711 8.89982C259.791 8.73298 258.859 8.60627 257.921 8.5203C256.862 8.42724 255.797 8.38212 254.731 8.38515C253.358 8.38135 251.987 8.47243 250.635 8.6573C249.386 8.82566 248.165 9.09814 246.991 9.47003C245.898 9.81579 244.867 10.2694 243.923 10.8196C243.016 11.3473 242.22 11.9805 241.561 12.6969C240.892 13.4303 240.379 14.243 240.043 15.1036C239.335 17.0268 239.335 19.0658 240.043 20.989C240.378 21.8498 240.891 22.6626 241.561 23.3957C242.22 24.1126 243.016 24.7464 243.923 25.2748C244.868 25.8237 245.899 26.2772 246.991 26.6244C248.164 27 249.386 27.2768 250.635 27.4501C251.985 27.6337 253.354 27.7241 254.724 27.7204C255.79 27.7243 256.855 27.6792 257.914 27.5852C259.736 27.4212 261.528 27.0983 263.258 26.6225C264.079 26.3967 264.905 26.1486 265.743 25.882V23.8567C265.085 24.191 264.4 24.4922 263.693 24.7583C262.898 25.0566 262.075 25.3084 261.232 25.5117C260.297 25.737 259.343 25.909 258.376 26.0264C257.305 26.1542 256.224 26.2161 255.141 26.2115C252.837 26.2115 250.842 26.0196 249.157 25.6358C247.634 25.3172 246.211 24.759 244.977 23.9955C243.904 23.3109 243.067 22.429 242.542 21.4296C241.484 19.2504 241.484 16.8459 242.542 14.6667C243.067 13.6628 243.907 12.777 244.984 12.0896C246.22 11.3258 247.642 10.7653 249.164 10.442C251.113 10.0274 253.128 9.831 255.148 9.8588C256.222 9.85371 257.295 9.91562 258.357 10.0439C259.311 10.1617 260.253 10.3338 261.175 10.5586C262.015 10.7647 262.834 11.0184 263.627 11.3176C264.356 11.5976 265.066 11.9066 265.755 12.2433V10.2235C264.917 9.95137 264.088 9.70514 263.27 9.48299C262.43 9.25456 261.576 9.05992 260.711 8.89982Z" fill="white"/>
<path d="M292.18 24.4398C291.303 22.823 289.867 21.4267 288.032 20.4058C287.174 19.9248 286.261 19.507 285.304 19.158C284.398 18.8282 283.46 18.5564 282.497 18.3453C281.636 18.1549 280.762 18.0029 279.879 17.8898C280.607 17.7514 281.322 17.5771 282.021 17.3678C282.854 17.123 283.664 16.8335 284.444 16.5013C285.3 16.1371 286.115 15.7198 286.884 15.2536C288.559 14.2428 289.876 12.9178 290.712 11.4028C291.182 10.5515 291.474 9.64706 291.576 8.72394H289.345C289.239 9.58995 288.938 10.4347 288.455 11.2195C287.978 11.9875 287.361 12.6977 286.622 13.3282C285.861 13.976 284.996 14.5452 284.049 15.0221C283.06 15.5215 282.007 15.9397 280.907 16.2699C279.763 16.6133 278.579 16.8724 277.373 17.0438C276.147 17.2189 274.903 17.3069 273.657 17.3067H270.529V8.72394H268.349V27.3557H270.529V18.7988H274.245C275.504 18.7996 276.762 18.8701 278.008 19.0099C279.254 19.146 280.482 19.3652 281.679 19.6653C282.845 19.9573 283.973 20.3361 285.047 20.7964C286.079 21.2413 287.028 21.7951 287.865 22.4423C288.685 23.0771 289.366 23.8126 289.879 24.6194C290.415 25.48 290.738 26.4114 290.831 27.3649H293.063C292.976 26.3589 292.678 25.3708 292.18 24.4398Z" fill="white"/>
</g>
<defs>
<clipPath id="clip0_2_14">
<rect width="55.4775" height="35" fill="white" transform="translate(0 0.5)"/>
</clipPath>
<clipPath id="clip1_2_14">
<rect width="220.071" height="19.4444" fill="white" transform="translate(73 8.27777)"/>
</clipPath>
</defs>
</svg>
