<svg width="500" height="45" viewBox="0 0 500 45" fill="none" xmlns="http://www.w3.org/2000/svg">
<g clip-path="url(#clip0_34_25)">
<path d="M50.224 3.953C47.4444 2.72616 44.4185 1.87294 41.2738 1.42927C37.618 0.888267 33.9033 0.624845 30.182 0.642715C25.7425 0.624065 21.3093 0.905538 16.9324 1.48396C12.7755 2.04478 8.86009 2.70656 5.18626 3.46929V7.98675C6.96008 7.45256 8.71227 6.95202 10.4591 6.47672C12.2058 6.00142 14.0229 5.58921 15.9211 5.21486C17.9456 4.83964 19.9971 4.55872 22.0646 4.37362C24.485 4.16314 26.9192 4.06342 29.3546 4.07498C31.3339 4.07498 33.3078 4.14227 35.2763 4.27687C37.1676 4.40156 39.0463 4.62215 40.9006 4.93725C42.601 5.22522 44.2644 5.63208 45.8706 6.15285C47.3198 6.61753 48.6693 7.25155 49.8725 8.03301C50.9839 8.7588 51.8883 9.65707 52.5278 10.6703C53.1844 11.7576 53.5101 12.9479 53.4796 14.1489V17.3834C48.3781 17.6106 43.5253 17.891 38.9213 18.2247C34.3173 18.5584 30.0324 18.9888 26.0665 19.516C22.4288 19.9843 18.8312 20.6248 15.2938 21.434C12.4214 22.0773 9.66498 23.0002 7.08988 24.1806C5.00235 25.1247 3.21059 26.4177 1.84413 27.9662C0.59676 29.4527 -0.0458726 31.1969 4.34555e-06 32.9716C-0.0496144 34.733 0.496817 36.4737 1.58455 38.0191C2.68471 39.4974 4.23548 40.7425 6.10022 41.6448C8.30078 42.6967 10.72 43.4425 13.2496 43.8489C16.3797 44.3656 19.5734 44.6125 22.7731 44.585C25.5558 44.5764 28.3352 44.436 31.0959 44.1643C33.8737 43.9042 36.6307 43.5236 39.3539 43.0244C41.9418 42.5528 44.493 41.9672 46.9954 41.2705C49.2275 40.6584 51.3969 39.916 53.485 39.0496V43.7353H58.3955V15.0448C58.3955 12.4369 57.6744 10.223 56.2323 8.40316C54.735 6.55519 52.6703 5.0259 50.224 3.953ZM53.4688 35.0369C52.4311 35.6393 51.323 36.1645 50.1591 36.6058C48.7543 37.1543 47.3098 37.6388 45.8327 38.0569C44.25 38.5056 42.5591 38.9262 40.76 39.3188C38.961 39.7114 37.1421 40.0352 35.3034 40.2904C33.4538 40.5708 31.5971 40.7868 29.7331 40.9382C27.9368 41.0869 26.1317 41.1627 24.3251 41.1653C21.6394 41.1858 18.9573 41.0055 16.3159 40.6269C14.199 40.3398 12.1521 39.7992 10.2481 39.0243C8.7023 38.4046 7.37905 37.4954 6.39766 36.3786C5.50279 35.307 5.04129 34.0515 5.0727 32.7739C5.0727 31.1111 5.97403 29.6221 7.77669 28.3069C9.57936 26.9918 12.4258 25.8421 16.3159 24.8578C21.2194 23.7001 26.2395 22.8657 31.3231 22.3636C37.4521 21.6878 44.8322 21.1634 53.4634 20.7904L53.4688 35.0369Z" fill="white"/>
<path d="M116.423 4.36913C114.445 3.0237 112.122 2.02014 109.609 1.4248C106.496 0.69384 103.255 0.346138 100.004 0.394288C96.8852 0.382594 93.7749 0.650756 90.7349 1.19346C87.9148 1.69933 85.1529 2.38444 82.4769 3.24188C80.0019 4.03658 77.5941 4.95256 75.2681 5.98431C73.04 6.98258 71.0012 7.93179 69.1517 8.83191V1.4248H64.198V43.7559H69.1517V13.2863C70.9326 12.1409 72.8117 11.0911 74.776 10.1442C77.1039 9.01098 79.5391 8.01686 82.0605 7.17046C84.7858 6.25604 87.6017 5.51473 90.4807 4.9538C93.4523 4.36811 96.5061 4.07281 99.5715 4.07471C101.991 4.05701 104.407 4.2332 106.78 4.60048C108.75 4.89162 110.611 5.52259 112.226 6.44699C113.765 7.38287 114.954 8.62155 115.671 10.0349C116.479 11.5463 116.881 13.4727 116.877 15.8142V43.7559H121.831V14.9814C121.868 12.9259 121.411 10.8832 120.484 8.95809C119.618 7.19928 118.226 5.6262 116.423 4.36913Z" fill="white"/>
<path d="M160.876 24.3233H183.049L183.114 39.1334C182.087 39.3815 180.827 39.6213 179.329 39.8568C177.831 40.0924 176.208 40.3111 174.413 40.5046C172.617 40.6981 170.708 40.8579 168.686 40.9841C166.663 41.1103 164.619 41.165 162.558 41.165C157.912 41.23 153.278 40.7637 148.806 39.7811C145.258 39.0016 141.939 37.693 139.034 35.9282C136.52 34.3676 134.529 32.3574 133.231 30.069C131.927 27.7208 131.271 25.1859 131.306 22.6282C131.252 19.9629 131.921 17.3186 133.269 14.8678C134.571 12.5662 136.587 10.5516 139.136 9.00435C142.069 7.28137 145.41 6.025 148.968 5.30709C153.482 4.3881 158.136 3.95223 162.802 4.01158C165.237 3.99948 167.669 4.14015 170.075 4.4322C172.236 4.70119 174.367 5.09628 176.451 5.61414C178.338 6.08365 180.178 6.66004 181.957 7.33868C183.608 7.97562 185.216 8.67756 186.775 9.44179V4.75187C184.872 4.13777 182.984 3.57694 181.113 3.06939C179.214 2.56062 177.283 2.12822 175.327 1.77389C173.276 1.4017 171.199 1.12083 169.107 0.932646C166.773 0.727989 164.426 0.629672 162.077 0.638207C158.867 0.631606 155.661 0.832793 152.494 1.23969C149.566 1.61151 146.692 2.21037 143.917 3.02733C141.345 3.78361 138.908 4.79289 136.665 6.03056C134.527 7.21486 132.645 8.65594 131.089 10.2999C129.516 11.9741 128.305 13.8366 127.504 15.8142C126.631 18.0137 126.204 20.3055 126.238 22.6072C126.238 26.3255 127.149 29.5601 128.969 32.3109C130.751 35.0284 133.337 37.3781 136.513 39.167C139.947 41.0675 143.811 42.4474 147.903 43.2344C152.563 44.1529 157.356 44.6024 162.164 44.572C164.667 44.572 167.069 44.5005 169.351 44.3575C171.633 44.2145 173.839 44.0041 175.965 43.7265C178.09 43.4489 180.151 43.104 182.146 42.696C184.142 42.288 186.11 41.8127 188.095 41.2785L187.943 20.5251H160.904L160.876 24.3233Z" fill="white"/>
<path d="M247.962 6.90969C245.153 4.92387 241.835 3.42299 238.227 2.50578C233.97 1.42768 229.513 0.906043 225.037 0.962088C220.608 0.921714 216.201 1.46352 212.004 2.56466C208.283 3.54102 204.842 5.06948 201.869 7.06532C199.058 8.98131 196.81 11.3454 195.277 13.9972C193.677 16.787 192.872 19.8134 192.919 22.8681C192.857 25.973 193.699 29.0487 195.38 31.8652C197.01 34.5248 199.402 36.8587 202.372 38.6877C205.643 40.6668 209.374 42.1365 213.361 43.0159C218.063 44.0648 222.937 44.5735 227.828 44.5259C230.121 44.5259 232.226 44.4685 234.144 44.3535C236.059 44.2441 237.93 44.0675 239.785 43.8319C241.64 43.5964 243.511 43.2893 245.414 42.9066C247.318 42.5238 249.373 42.0653 251.59 41.5353V37.0683C250.296 37.6708 248.928 38.1724 247.507 38.5657C245.704 39.0794 243.864 39.5106 241.997 39.857C239.92 40.2502 237.816 40.5535 235.696 40.7656C233.545 40.9903 231.377 41.1041 229.207 41.1063C224.766 41.1604 220.335 40.7616 216.027 39.9201C212.612 39.2563 209.386 38.1023 206.515 36.5173C204.018 35.1059 201.98 33.2591 200.566 31.1249C199.127 28.9052 198.263 26.487 198.024 24.008H256.041V23.0532C256.103 19.9148 255.404 16.7954 253.981 13.8584C252.677 11.2173 250.619 8.84117 247.962 6.90969ZM197.97 20.6514C198.309 18.4884 199.129 16.3877 200.393 14.443C201.676 12.4637 203.454 10.7035 205.622 9.26518C208.018 7.69661 210.769 6.48977 213.734 5.70671C217.336 4.77357 221.117 4.32548 224.913 4.38175C229.43 4.38175 233.308 4.8234 236.545 5.70671C239.498 6.46355 242.221 7.68002 244.549 9.282C246.598 10.7211 248.216 12.4931 249.287 14.4725C250.348 16.4367 250.978 18.5252 251.152 20.6514H197.97Z" fill="white"/>
<path d="M275.277 39.3943C272.887 38.9737 271.057 38.3218 269.788 37.4385C268.519 36.5512 267.645 35.3726 267.295 34.0735C266.868 32.4518 266.669 30.7989 266.7 29.1438V1.4248H261.746V29.8588C261.695 31.9602 262.03 34.0565 262.741 36.084C263.337 37.7593 264.547 39.2633 266.224 40.4123C268.19 41.6609 270.512 42.5261 272.995 42.936C276.547 43.5373 280.177 43.8112 283.811 43.752H309.396V40.0211H284.801C281.606 40.077 278.414 39.8669 275.277 39.3943Z" fill="white"/>
<path d="M368.597 5.93816C365.319 4.07249 361.608 2.71838 357.668 1.95068C353.234 1.06428 348.671 0.628822 344.094 0.655181C340.976 0.646342 337.864 0.837667 334.787 1.22722C331.951 1.58094 329.172 2.16893 326.496 2.9812C323.999 3.7353 321.637 4.73467 319.466 5.95498C317.391 7.12872 315.579 8.55966 314.101 10.1906C312.586 11.886 311.425 13.757 310.662 15.7344C309.811 17.9687 309.397 20.2898 309.434 22.6199C309.434 26.4223 310.317 29.7031 312.084 32.4624C313.789 35.1744 316.308 37.5274 319.428 39.3227C322.732 41.1917 326.469 42.5471 330.433 43.3144C334.9 44.1923 339.493 44.6192 344.099 44.5846C348.677 44.6123 353.239 44.1783 357.673 43.2933C361.61 42.5318 365.32 41.1833 368.597 39.3227C371.688 37.5245 374.185 35.1803 375.882 32.4834C377.648 29.7242 378.532 26.4433 378.532 22.6409C378.532 18.8386 377.648 15.5577 375.882 12.7985C374.186 10.0957 371.689 7.74459 368.597 5.93816ZM371.577 30.5696C370.36 32.8304 368.45 34.8248 366.012 36.3784C363.297 38.0482 360.167 39.264 356.819 39.9494C348.438 41.5703 339.674 41.5703 331.293 39.9494C327.933 39.2615 324.79 38.0462 322.056 36.3784C319.595 34.8307 317.662 32.8358 316.427 30.5696C313.889 25.471 313.889 19.8193 316.427 14.7207C317.657 12.4476 319.591 10.4464 322.056 8.89511C324.796 7.22334 327.944 6.00262 331.309 5.30723C339.689 3.67518 348.456 3.67518 356.835 5.30723C360.183 5.99407 363.313 7.21123 366.029 8.88249C368.466 10.436 370.376 12.4305 371.593 14.6912C374.11 19.8088 374.11 25.4688 371.593 30.5864L371.577 30.5696Z" fill="white"/>
<path d="M426.478 1.82443C424.388 1.44537 422.272 1.15749 420.14 0.962155C417.734 0.750737 415.315 0.648221 412.893 0.655111C409.774 0.646476 406.659 0.853393 403.586 1.27342C400.749 1.65594 397.973 2.27501 395.307 3.11994C392.824 3.90551 390.481 4.93606 388.336 6.18626C386.276 7.38508 384.467 8.82367 382.971 10.4513C381.45 12.1176 380.285 13.9641 379.521 15.9194C377.913 20.2888 377.913 24.9215 379.521 29.2909C380.283 31.2467 381.448 33.0934 382.971 34.759C384.467 36.3879 386.276 37.8279 388.336 39.0282C390.483 40.2754 392.826 41.3057 395.307 42.0946C397.973 42.9479 400.748 43.5768 403.586 43.9705C406.654 44.3877 409.763 44.5932 412.877 44.5846C415.298 44.5936 417.718 44.4911 420.124 44.2776C424.264 43.905 428.336 43.1713 432.265 42.0904C434.131 41.5772 436.007 41.0136 437.911 40.4079V35.8063C436.417 36.566 434.861 37.2502 433.254 37.8547C431.448 38.5325 429.579 39.1047 427.663 39.5667C425.539 40.0783 423.37 40.4691 421.173 40.736C418.741 41.0263 416.284 41.1669 413.824 41.1566C408.589 41.1566 404.057 40.7205 400.228 39.8485C396.768 39.1247 393.536 37.8563 390.731 36.1218C388.293 34.5664 386.392 32.5627 385.199 30.292C382.795 25.3409 382.795 19.8778 385.199 14.9267C386.392 12.646 388.3 10.6333 390.748 9.0717C393.554 7.33635 396.785 6.06274 400.244 5.32819C404.672 4.38621 409.25 3.94007 413.84 4.00324C416.28 3.99167 418.718 4.13233 421.13 4.42386C423.298 4.6915 425.438 5.08232 427.533 5.59318C429.441 6.06136 431.303 6.63775 433.103 7.31773C434.76 7.95377 436.374 8.65573 437.938 9.42083V4.83186C436.034 4.21355 434.152 3.65413 432.292 3.14938C430.385 2.6304 428.444 2.18817 426.478 1.82443Z" fill="white"/>
<path d="M497.977 37.1314C495.984 33.4579 492.721 30.2855 488.551 27.966C486.603 26.8732 484.528 25.924 482.354 25.131C480.296 24.3817 478.164 23.7641 475.978 23.2845C474.022 22.852 472.035 22.5065 470.029 22.2498C471.682 21.9353 473.308 21.5391 474.896 21.0636C476.787 20.5075 478.627 19.8497 480.401 19.0951C482.344 18.2676 484.198 17.3195 485.944 16.2601C489.749 13.9637 492.741 10.9533 494.64 7.5112C495.709 5.577 496.371 3.52215 496.604 1.4248H491.536C491.295 3.39239 490.61 5.3116 489.514 7.09479C488.43 8.83954 487.027 10.4532 485.35 11.8857C483.62 13.3574 481.655 14.6508 479.504 15.7343C477.257 16.8689 474.864 17.819 472.365 18.5693C469.765 19.3494 467.076 19.9381 464.334 20.3276C461.549 20.7253 458.724 20.9252 455.892 20.9248H448.786V1.4248H443.833V43.7562H448.786V24.315H457.228C460.089 24.3168 462.946 24.477 465.778 24.7946C468.608 25.1037 471.398 25.6019 474.117 26.2835C476.768 26.947 479.331 27.8076 481.769 28.8535C484.115 29.8642 486.27 31.1226 488.173 32.5929C490.036 34.0352 491.582 35.7064 492.748 37.5394C493.966 39.4947 494.699 41.6108 494.911 43.7772H499.984C499.786 41.4916 499.108 39.2466 497.977 37.1314Z" fill="white"/>
</g>
<defs>
<clipPath id="clip0_34_25">
<rect width="500" height="44.1778" fill="white" transform="translate(0 0.411133)"/>
</clipPath>
</defs>
</svg>
